<svg xmlns="http://www.w3.org/2000/svg" viewBox="0 0 1000 1500" width="1000" height="1500">
  <defs>
    <linearGradient id="bg" x1="0" y1="0" x2="0" y2="1">
      <stop offset="0%" stop-color="#0a1628"/>
      <stop offset="100%" stop-color="#0d1f3c"/>
    </linearGradient>
    <linearGradient id="gline" x1="0" y1="0" x2="1" y2="0">
      <stop offset="0%" stop-color="#d4af37" stop-opacity="0"/>
      <stop offset="20%" stop-color="#d4af37"/>
      <stop offset="80%" stop-color="#d4af37"/>
      <stop offset="100%" stop-color="#d4af37" stop-opacity="0"/>
    </linearGradient>
  </defs>

  <!-- Background -->
  <rect width="1000" height="1500" fill="url(#bg)"/>

  <!-- Dot pattern -->
  <circle cx="0" cy="0" r="1" fill="white" opacity="0.04"/><circle cx="0" cy="50" r="1" fill="white" opacity="0.04"/><circle cx="0" cy="100" r="1" fill="white" opacity="0.04"/><circle cx="0" cy="150" r="1" fill="white" opacity="0.04"/><circle cx="0" cy="200" r="1" fill="white" opacity="0.04"/><circle cx="0" cy="250" r="1" fill="white" opacity="0.04"/><circle cx="0" cy="300" r="1" fill="white" opacity="0.04"/><circle cx="0" cy="350" r="1" fill="white" opacity="0.04"/><circle cx="0" cy="400" r="1" fill="white" opacity="0.04"/><circle cx="0" cy="450" r="1" fill="white" opacity="0.04"/><circle cx="0" cy="500" r="1" fill="white" opacity="0.04"/><circle cx="0" cy="550" r="1" fill="white" opacity="0.04"/><circle cx="0" cy="600" r="1" fill="white" opacity="0.04"/><circle cx="0" cy="650" r="1" fill="white" opacity="0.04"/><circle cx="0" cy="700" r="1" fill="white" opacity="0.04"/><circle cx="0" cy="750" r="1" fill="white" opacity="0.04"/><circle cx="0" cy="800" r="1" fill="white" opacity="0.04"/><circle cx="0" cy="850" r="1" fill="white" opacity="0.04"/><circle cx="0" cy="900" r="1" fill="white" opacity="0.04"/><circle cx="0" cy="950" r="1" fill="white" opacity="0.04"/><circle cx="0" cy="1000" r="1" fill="white" opacity="0.04"/><circle cx="0" cy="1050" r="1" fill="white" opacity="0.04"/><circle cx="0" cy="1100" r="1" fill="white" opacity="0.04"/><circle cx="0" cy="1150" r="1" fill="white" opacity="0.04"/><circle cx="0" cy="1200" r="1" fill="white" opacity="0.04"/><circle cx="0" cy="1250" r="1" fill="white" opacity="0.04"/><circle cx="0" cy="1300" r="1" fill="white" opacity="0.04"/><circle cx="0" cy="1350" r="1" fill="white" opacity="0.04"/><circle cx="0" cy="1400" r="1" fill="white" opacity="0.04"/><circle cx="0" cy="1450" r="1" fill="white" opacity="0.04"/><circle cx="0" cy="1500" r="1" fill="white" opacity="0.04"/><circle cx="50" cy="0" r="1" fill="white" opacity="0.04"/><circle cx="50" cy="50" r="1" fill="white" opacity="0.04"/><circle cx="50" cy="100" r="1" fill="white" opacity="0.04"/><circle cx="50" cy="150" r="1" fill="white" opacity="0.04"/><circle cx="50" cy="200" r="1" fill="white" opacity="0.04"/><circle cx="50" cy="250" r="1" fill="white" opacity="0.04"/><circle cx="50" cy="300" r="1" fill="white" opacity="0.04"/><circle cx="50" cy="350" r="1" fill="white" opacity="0.04"/><circle cx="50" cy="400" r="1" fill="white" opacity="0.04"/><circle cx="50" cy="450" r="1" fill="white" opacity="0.04"/><circle cx="50" cy="500" r="1" fill="white" opacity="0.04"/><circle cx="50" cy="550" r="1" fill="white" opacity="0.04"/><circle cx="50" cy="600" r="1" fill="white" opacity="0.04"/><circle cx="50" cy="650" r="1" fill="white" opacity="0.04"/><circle cx="50" cy="700" r="1" fill="white" opacity="0.04"/><circle cx="50" cy="750" r="1" fill="white" opacity="0.04"/><circle cx="50" cy="800" r="1" fill="white" opacity="0.04"/><circle cx="50" cy="850" r="1" fill="white" opacity="0.04"/><circle cx="50" cy="900" r="1" fill="white" opacity="0.04"/><circle cx="50" cy="950" r="1" fill="white" opacity="0.04"/><circle cx="50" cy="1000" r="1" fill="white" opacity="0.04"/><circle cx="50" cy="1050" r="1" fill="white" opacity="0.04"/><circle cx="50" cy="1100" r="1" fill="white" opacity="0.04"/><circle cx="50" cy="1150" r="1" fill="white" opacity="0.04"/><circle cx="50" cy="1200" r="1" fill="white" opacity="0.04"/><circle cx="50" cy="1250" r="1" fill="white" opacity="0.04"/><circle cx="50" cy="1300" r="1" fill="white" opacity="0.04"/><circle cx="50" cy="1350" r="1" fill="white" opacity="0.04"/><circle cx="50" cy="1400" r="1" fill="white" opacity="0.04"/><circle cx="50" cy="1450" r="1" fill="white" opacity="0.04"/><circle cx="50" cy="1500" r="1" fill="white" opacity="0.04"/><circle cx="100" cy="0" r="1" fill="white" opacity="0.04"/><circle cx="100" cy="50" r="1" fill="white" opacity="0.04"/><circle cx="100" cy="100" r="1" fill="white" opacity="0.04"/><circle cx="100" cy="150" r="1" fill="white" opacity="0.04"/><circle cx="100" cy="200" r="1" fill="white" opacity="0.04"/><circle cx="100" cy="250" r="1" fill="white" opacity="0.04"/><circle cx="100" cy="300" r="1" fill="white" opacity="0.04"/><circle cx="100" cy="350" r="1" fill="white" opacity="0.04"/><circle cx="100" cy="400" r="1" fill="white" opacity="0.04"/><circle cx="100" cy="450" r="1" fill="white" opacity="0.04"/><circle cx="100" cy="500" r="1" fill="white" opacity="0.04"/><circle cx="100" cy="550" r="1" fill="white" opacity="0.04"/><circle cx="100" cy="600" r="1" fill="white" opacity="0.04"/><circle cx="100" cy="650" r="1" fill="white" opacity="0.04"/><circle cx="100" cy="700" r="1" fill="white" opacity="0.04"/><circle cx="100" cy="750" r="1" fill="white" opacity="0.04"/><circle cx="100" cy="800" r="1" fill="white" opacity="0.04"/><circle cx="100" cy="850" r="1" fill="white" opacity="0.04"/><circle cx="100" cy="900" r="1" fill="white" opacity="0.04"/><circle cx="100" cy="950" r="1" fill="white" opacity="0.04"/><circle cx="100" cy="1000" r="1" fill="white" opacity="0.04"/><circle cx="100" cy="1050" r="1" fill="white" opacity="0.04"/><circle cx="100" cy="1100" r="1" fill="white" opacity="0.04"/><circle cx="100" cy="1150" r="1" fill="white" opacity="0.04"/><circle cx="100" cy="1200" r="1" fill="white" opacity="0.04"/><circle cx="100" cy="1250" r="1" fill="white" opacity="0.04"/><circle cx="100" cy="1300" r="1" fill="white" opacity="0.04"/><circle cx="100" cy="1350" r="1" fill="white" opacity="0.04"/><circle cx="100" cy="1400" r="1" fill="white" opacity="0.04"/><circle cx="100" cy="1450" r="1" fill="white" opacity="0.04"/><circle cx="100" cy="1500" r="1" fill="white" opacity="0.04"/><circle cx="150" cy="0" r="1" fill="white" opacity="0.04"/><circle cx="150" cy="50" r="1" fill="white" opacity="0.04"/><circle cx="150" cy="100" r="1" fill="white" opacity="0.04"/><circle cx="150" cy="150" r="1" fill="white" opacity="0.04"/><circle cx="150" cy="200" r="1" fill="white" opacity="0.04"/><circle cx="150" cy="250" r="1" fill="white" opacity="0.04"/><circle cx="150" cy="300" r="1" fill="white" opacity="0.04"/><circle cx="150" cy="350" r="1" fill="white" opacity="0.04"/><circle cx="150" cy="400" r="1" fill="white" opacity="0.04"/><circle cx="150" cy="450" r="1" fill="white" opacity="0.04"/><circle cx="150" cy="500" r="1" fill="white" opacity="0.04"/><circle cx="150" cy="550" r="1" fill="white" opacity="0.04"/><circle cx="150" cy="600" r="1" fill="white" opacity="0.04"/><circle cx="150" cy="650" r="1" fill="white" opacity="0.04"/><circle cx="150" cy="700" r="1" fill="white" opacity="0.04"/><circle cx="150" cy="750" r="1" fill="white" opacity="0.04"/><circle cx="150" cy="800" r="1" fill="white" opacity="0.04"/><circle cx="150" cy="850" r="1" fill="white" opacity="0.04"/><circle cx="150" cy="900" r="1" fill="white" opacity="0.04"/><circle cx="150" cy="950" r="1" fill="white" opacity="0.04"/><circle cx="150" cy="1000" r="1" fill="white" opacity="0.04"/><circle cx="150" cy="1050" r="1" fill="white" opacity="0.04"/><circle cx="150" cy="1100" r="1" fill="white" opacity="0.04"/><circle cx="150" cy="1150" r="1" fill="white" opacity="0.04"/><circle cx="150" cy="1200" r="1" fill="white" opacity="0.04"/><circle cx="150" cy="1250" r="1" fill="white" opacity="0.04"/><circle cx="150" cy="1300" r="1" fill="white" opacity="0.04"/><circle cx="150" cy="1350" r="1" fill="white" opacity="0.04"/><circle cx="150" cy="1400" r="1" fill="white" opacity="0.04"/><circle cx="150" cy="1450" r="1" fill="white" opacity="0.04"/><circle cx="150" cy="1500" r="1" fill="white" opacity="0.04"/><circle cx="200" cy="0" r="1" fill="white" opacity="0.04"/><circle cx="200" cy="50" r="1" fill="white" opacity="0.04"/><circle cx="200" cy="100" r="1" fill="white" opacity="0.04"/><circle cx="200" cy="150" r="1" fill="white" opacity="0.04"/><circle cx="200" cy="200" r="1" fill="white" opacity="0.04"/><circle cx="200" cy="250" r="1" fill="white" opacity="0.04"/><circle cx="200" cy="300" r="1" fill="white" opacity="0.04"/><circle cx="200" cy="350" r="1" fill="white" opacity="0.04"/><circle cx="200" cy="400" r="1" fill="white" opacity="0.04"/><circle cx="200" cy="450" r="1" fill="white" opacity="0.04"/><circle cx="200" cy="500" r="1" fill="white" opacity="0.04"/><circle cx="200" cy="550" r="1" fill="white" opacity="0.04"/><circle cx="200" cy="600" r="1" fill="white" opacity="0.04"/><circle cx="200" cy="650" r="1" fill="white" opacity="0.04"/><circle cx="200" cy="700" r="1" fill="white" opacity="0.04"/><circle cx="200" cy="750" r="1" fill="white" opacity="0.04"/><circle cx="200" cy="800" r="1" fill="white" opacity="0.04"/><circle cx="200" cy="850" r="1" fill="white" opacity="0.04"/><circle cx="200" cy="900" r="1" fill="white" opacity="0.04"/><circle cx="200" cy="950" r="1" fill="white" opacity="0.04"/><circle cx="200" cy="1000" r="1" fill="white" opacity="0.04"/><circle cx="200" cy="1050" r="1" fill="white" opacity="0.04"/><circle cx="200" cy="1100" r="1" fill="white" opacity="0.04"/><circle cx="200" cy="1150" r="1" fill="white" opacity="0.04"/><circle cx="200" cy="1200" r="1" fill="white" opacity="0.04"/><circle cx="200" cy="1250" r="1" fill="white" opacity="0.04"/><circle cx="200" cy="1300" r="1" fill="white" opacity="0.04"/><circle cx="200" cy="1350" r="1" fill="white" opacity="0.04"/><circle cx="200" cy="1400" r="1" fill="white" opacity="0.04"/><circle cx="200" cy="1450" r="1" fill="white" opacity="0.04"/><circle cx="200" cy="1500" r="1" fill="white" opacity="0.04"/><circle cx="250" cy="0" r="1" fill="white" opacity="0.04"/><circle cx="250" cy="50" r="1" fill="white" opacity="0.04"/><circle cx="250" cy="100" r="1" fill="white" opacity="0.04"/><circle cx="250" cy="150" r="1" fill="white" opacity="0.04"/><circle cx="250" cy="200" r="1" fill="white" opacity="0.04"/><circle cx="250" cy="250" r="1" fill="white" opacity="0.04"/><circle cx="250" cy="300" r="1" fill="white" opacity="0.04"/><circle cx="250" cy="350" r="1" fill="white" opacity="0.04"/><circle cx="250" cy="400" r="1" fill="white" opacity="0.04"/><circle cx="250" cy="450" r="1" fill="white" opacity="0.04"/><circle cx="250" cy="500" r="1" fill="white" opacity="0.04"/><circle cx="250" cy="550" r="1" fill="white" opacity="0.04"/><circle cx="250" cy="600" r="1" fill="white" opacity="0.04"/><circle cx="250" cy="650" r="1" fill="white" opacity="0.04"/><circle cx="250" cy="700" r="1" fill="white" opacity="0.04"/><circle cx="250" cy="750" r="1" fill="white" opacity="0.04"/><circle cx="250" cy="800" r="1" fill="white" opacity="0.04"/><circle cx="250" cy="850" r="1" fill="white" opacity="0.04"/><circle cx="250" cy="900" r="1" fill="white" opacity="0.04"/><circle cx="250" cy="950" r="1" fill="white" opacity="0.04"/><circle cx="250" cy="1000" r="1" fill="white" opacity="0.04"/><circle cx="250" cy="1050" r="1" fill="white" opacity="0.04"/><circle cx="250" cy="1100" r="1" fill="white" opacity="0.04"/><circle cx="250" cy="1150" r="1" fill="white" opacity="0.04"/><circle cx="250" cy="1200" r="1" fill="white" opacity="0.04"/><circle cx="250" cy="1250" r="1" fill="white" opacity="0.04"/><circle cx="250" cy="1300" r="1" fill="white" opacity="0.04"/><circle cx="250" cy="1350" r="1" fill="white" opacity="0.04"/><circle cx="250" cy="1400" r="1" fill="white" opacity="0.04"/><circle cx="250" cy="1450" r="1" fill="white" opacity="0.04"/><circle cx="250" cy="1500" r="1" fill="white" opacity="0.04"/><circle cx="300" cy="0" r="1" fill="white" opacity="0.04"/><circle cx="300" cy="50" r="1" fill="white" opacity="0.04"/><circle cx="300" cy="100" r="1" fill="white" opacity="0.04"/><circle cx="300" cy="150" r="1" fill="white" opacity="0.04"/><circle cx="300" cy="200" r="1" fill="white" opacity="0.04"/><circle cx="300" cy="250" r="1" fill="white" opacity="0.04"/><circle cx="300" cy="300" r="1" fill="white" opacity="0.04"/><circle cx="300" cy="350" r="1" fill="white" opacity="0.04"/><circle cx="300" cy="400" r="1" fill="white" opacity="0.04"/><circle cx="300" cy="450" r="1" fill="white" opacity="0.04"/><circle cx="300" cy="500" r="1" fill="white" opacity="0.04"/><circle cx="300" cy="550" r="1" fill="white" opacity="0.04"/><circle cx="300" cy="600" r="1" fill="white" opacity="0.04"/><circle cx="300" cy="650" r="1" fill="white" opacity="0.04"/><circle cx="300" cy="700" r="1" fill="white" opacity="0.04"/><circle cx="300" cy="750" r="1" fill="white" opacity="0.04"/><circle cx="300" cy="800" r="1" fill="white" opacity="0.04"/><circle cx="300" cy="850" r="1" fill="white" opacity="0.04"/><circle cx="300" cy="900" r="1" fill="white" opacity="0.04"/><circle cx="300" cy="950" r="1" fill="white" opacity="0.04"/><circle cx="300" cy="1000" r="1" fill="white" opacity="0.04"/><circle cx="300" cy="1050" r="1" fill="white" opacity="0.04"/><circle cx="300" cy="1100" r="1" fill="white" opacity="0.04"/><circle cx="300" cy="1150" r="1" fill="white" opacity="0.04"/><circle cx="300" cy="1200" r="1" fill="white" opacity="0.04"/><circle cx="300" cy="1250" r="1" fill="white" opacity="0.04"/><circle cx="300" cy="1300" r="1" fill="white" opacity="0.04"/><circle cx="300" cy="1350" r="1" fill="white" opacity="0.04"/><circle cx="300" cy="1400" r="1" fill="white" opacity="0.04"/><circle cx="300" cy="1450" r="1" fill="white" opacity="0.04"/><circle cx="300" cy="1500" r="1" fill="white" opacity="0.04"/><circle cx="350" cy="0" r="1" fill="white" opacity="0.04"/><circle cx="350" cy="50" r="1" fill="white" opacity="0.04"/><circle cx="350" cy="100" r="1" fill="white" opacity="0.04"/><circle cx="350" cy="150" r="1" fill="white" opacity="0.04"/><circle cx="350" cy="200" r="1" fill="white" opacity="0.04"/><circle cx="350" cy="250" r="1" fill="white" opacity="0.04"/><circle cx="350" cy="300" r="1" fill="white" opacity="0.04"/><circle cx="350" cy="350" r="1" fill="white" opacity="0.04"/><circle cx="350" cy="400" r="1" fill="white" opacity="0.04"/><circle cx="350" cy="450" r="1" fill="white" opacity="0.04"/><circle cx="350" cy="500" r="1" fill="white" opacity="0.04"/><circle cx="350" cy="550" r="1" fill="white" opacity="0.04"/><circle cx="350" cy="600" r="1" fill="white" opacity="0.04"/><circle cx="350" cy="650" r="1" fill="white" opacity="0.04"/><circle cx="350" cy="700" r="1" fill="white" opacity="0.04"/><circle cx="350" cy="750" r="1" fill="white" opacity="0.04"/><circle cx="350" cy="800" r="1" fill="white" opacity="0.04"/><circle cx="350" cy="850" r="1" fill="white" opacity="0.04"/><circle cx="350" cy="900" r="1" fill="white" opacity="0.04"/><circle cx="350" cy="950" r="1" fill="white" opacity="0.04"/><circle cx="350" cy="1000" r="1" fill="white" opacity="0.04"/><circle cx="350" cy="1050" r="1" fill="white" opacity="0.04"/><circle cx="350" cy="1100" r="1" fill="white" opacity="0.04"/><circle cx="350" cy="1150" r="1" fill="white" opacity="0.04"/><circle cx="350" cy="1200" r="1" fill="white" opacity="0.04"/><circle cx="350" cy="1250" r="1" fill="white" opacity="0.04"/><circle cx="350" cy="1300" r="1" fill="white" opacity="0.04"/><circle cx="350" cy="1350" r="1" fill="white" opacity="0.04"/><circle cx="350" cy="1400" r="1" fill="white" opacity="0.04"/><circle cx="350" cy="1450" r="1" fill="white" opacity="0.04"/><circle cx="350" cy="1500" r="1" fill="white" opacity="0.04"/><circle cx="400" cy="0" r="1" fill="white" opacity="0.04"/><circle cx="400" cy="50" r="1" fill="white" opacity="0.04"/><circle cx="400" cy="100" r="1" fill="white" opacity="0.04"/><circle cx="400" cy="150" r="1" fill="white" opacity="0.04"/><circle cx="400" cy="200" r="1" fill="white" opacity="0.04"/><circle cx="400" cy="250" r="1" fill="white" opacity="0.04"/><circle cx="400" cy="300" r="1" fill="white" opacity="0.04"/><circle cx="400" cy="350" r="1" fill="white" opacity="0.04"/><circle cx="400" cy="400" r="1" fill="white" opacity="0.04"/><circle cx="400" cy="450" r="1" fill="white" opacity="0.04"/><circle cx="400" cy="500" r="1" fill="white" opacity="0.04"/><circle cx="400" cy="550" r="1" fill="white" opacity="0.04"/><circle cx="400" cy="600" r="1" fill="white" opacity="0.04"/><circle cx="400" cy="650" r="1" fill="white" opacity="0.04"/><circle cx="400" cy="700" r="1" fill="white" opacity="0.04"/><circle cx="400" cy="750" r="1" fill="white" opacity="0.04"/><circle cx="400" cy="800" r="1" fill="white" opacity="0.04"/><circle cx="400" cy="850" r="1" fill="white" opacity="0.04"/><circle cx="400" cy="900" r="1" fill="white" opacity="0.04"/><circle cx="400" cy="950" r="1" fill="white" opacity="0.04"/><circle cx="400" cy="1000" r="1" fill="white" opacity="0.04"/><circle cx="400" cy="1050" r="1" fill="white" opacity="0.04"/><circle cx="400" cy="1100" r="1" fill="white" opacity="0.04"/><circle cx="400" cy="1150" r="1" fill="white" opacity="0.04"/><circle cx="400" cy="1200" r="1" fill="white" opacity="0.04"/><circle cx="400" cy="1250" r="1" fill="white" opacity="0.04"/><circle cx="400" cy="1300" r="1" fill="white" opacity="0.04"/><circle cx="400" cy="1350" r="1" fill="white" opacity="0.04"/><circle cx="400" cy="1400" r="1" fill="white" opacity="0.04"/><circle cx="400" cy="1450" r="1" fill="white" opacity="0.04"/><circle cx="400" cy="1500" r="1" fill="white" opacity="0.04"/><circle cx="450" cy="0" r="1" fill="white" opacity="0.04"/><circle cx="450" cy="50" r="1" fill="white" opacity="0.04"/><circle cx="450" cy="100" r="1" fill="white" opacity="0.04"/><circle cx="450" cy="150" r="1" fill="white" opacity="0.04"/><circle cx="450" cy="200" r="1" fill="white" opacity="0.04"/><circle cx="450" cy="250" r="1" fill="white" opacity="0.04"/><circle cx="450" cy="300" r="1" fill="white" opacity="0.04"/><circle cx="450" cy="350" r="1" fill="white" opacity="0.04"/><circle cx="450" cy="400" r="1" fill="white" opacity="0.04"/><circle cx="450" cy="450" r="1" fill="white" opacity="0.04"/><circle cx="450" cy="500" r="1" fill="white" opacity="0.04"/><circle cx="450" cy="550" r="1" fill="white" opacity="0.04"/><circle cx="450" cy="600" r="1" fill="white" opacity="0.04"/><circle cx="450" cy="650" r="1" fill="white" opacity="0.04"/><circle cx="450" cy="700" r="1" fill="white" opacity="0.04"/><circle cx="450" cy="750" r="1" fill="white" opacity="0.04"/><circle cx="450" cy="800" r="1" fill="white" opacity="0.04"/><circle cx="450" cy="850" r="1" fill="white" opacity="0.04"/><circle cx="450" cy="900" r="1" fill="white" opacity="0.04"/><circle cx="450" cy="950" r="1" fill="white" opacity="0.04"/><circle cx="450" cy="1000" r="1" fill="white" opacity="0.04"/><circle cx="450" cy="1050" r="1" fill="white" opacity="0.04"/><circle cx="450" cy="1100" r="1" fill="white" opacity="0.04"/><circle cx="450" cy="1150" r="1" fill="white" opacity="0.04"/><circle cx="450" cy="1200" r="1" fill="white" opacity="0.04"/><circle cx="450" cy="1250" r="1" fill="white" opacity="0.04"/><circle cx="450" cy="1300" r="1" fill="white" opacity="0.04"/><circle cx="450" cy="1350" r="1" fill="white" opacity="0.04"/><circle cx="450" cy="1400" r="1" fill="white" opacity="0.04"/><circle cx="450" cy="1450" r="1" fill="white" opacity="0.04"/><circle cx="450" cy="1500" r="1" fill="white" opacity="0.04"/><circle cx="500" cy="0" r="1" fill="white" opacity="0.04"/><circle cx="500" cy="50" r="1" fill="white" opacity="0.04"/><circle cx="500" cy="100" r="1" fill="white" opacity="0.04"/><circle cx="500" cy="150" r="1" fill="white" opacity="0.04"/><circle cx="500" cy="200" r="1" fill="white" opacity="0.04"/><circle cx="500" cy="250" r="1" fill="white" opacity="0.04"/><circle cx="500" cy="300" r="1" fill="white" opacity="0.04"/><circle cx="500" cy="350" r="1" fill="white" opacity="0.04"/><circle cx="500" cy="400" r="1" fill="white" opacity="0.04"/><circle cx="500" cy="450" r="1" fill="white" opacity="0.04"/><circle cx="500" cy="500" r="1" fill="white" opacity="0.04"/><circle cx="500" cy="550" r="1" fill="white" opacity="0.04"/><circle cx="500" cy="600" r="1" fill="white" opacity="0.04"/><circle cx="500" cy="650" r="1" fill="white" opacity="0.04"/><circle cx="500" cy="700" r="1" fill="white" opacity="0.04"/><circle cx="500" cy="750" r="1" fill="white" opacity="0.04"/><circle cx="500" cy="800" r="1" fill="white" opacity="0.04"/><circle cx="500" cy="850" r="1" fill="white" opacity="0.04"/><circle cx="500" cy="900" r="1" fill="white" opacity="0.04"/><circle cx="500" cy="950" r="1" fill="white" opacity="0.04"/><circle cx="500" cy="1000" r="1" fill="white" opacity="0.04"/><circle cx="500" cy="1050" r="1" fill="white" opacity="0.04"/><circle cx="500" cy="1100" r="1" fill="white" opacity="0.04"/><circle cx="500" cy="1150" r="1" fill="white" opacity="0.04"/><circle cx="500" cy="1200" r="1" fill="white" opacity="0.04"/><circle cx="500" cy="1250" r="1" fill="white" opacity="0.04"/><circle cx="500" cy="1300" r="1" fill="white" opacity="0.04"/><circle cx="500" cy="1350" r="1" fill="white" opacity="0.04"/><circle cx="500" cy="1400" r="1" fill="white" opacity="0.04"/><circle cx="500" cy="1450" r="1" fill="white" opacity="0.04"/><circle cx="500" cy="1500" r="1" fill="white" opacity="0.04"/><circle cx="550" cy="0" r="1" fill="white" opacity="0.04"/><circle cx="550" cy="50" r="1" fill="white" opacity="0.04"/><circle cx="550" cy="100" r="1" fill="white" opacity="0.04"/><circle cx="550" cy="150" r="1" fill="white" opacity="0.04"/><circle cx="550" cy="200" r="1" fill="white" opacity="0.04"/><circle cx="550" cy="250" r="1" fill="white" opacity="0.04"/><circle cx="550" cy="300" r="1" fill="white" opacity="0.04"/><circle cx="550" cy="350" r="1" fill="white" opacity="0.04"/><circle cx="550" cy="400" r="1" fill="white" opacity="0.04"/><circle cx="550" cy="450" r="1" fill="white" opacity="0.04"/><circle cx="550" cy="500" r="1" fill="white" opacity="0.04"/><circle cx="550" cy="550" r="1" fill="white" opacity="0.04"/><circle cx="550" cy="600" r="1" fill="white" opacity="0.04"/><circle cx="550" cy="650" r="1" fill="white" opacity="0.04"/><circle cx="550" cy="700" r="1" fill="white" opacity="0.04"/><circle cx="550" cy="750" r="1" fill="white" opacity="0.04"/><circle cx="550" cy="800" r="1" fill="white" opacity="0.04"/><circle cx="550" cy="850" r="1" fill="white" opacity="0.04"/><circle cx="550" cy="900" r="1" fill="white" opacity="0.04"/><circle cx="550" cy="950" r="1" fill="white" opacity="0.04"/><circle cx="550" cy="1000" r="1" fill="white" opacity="0.04"/><circle cx="550" cy="1050" r="1" fill="white" opacity="0.04"/><circle cx="550" cy="1100" r="1" fill="white" opacity="0.04"/><circle cx="550" cy="1150" r="1" fill="white" opacity="0.04"/><circle cx="550" cy="1200" r="1" fill="white" opacity="0.04"/><circle cx="550" cy="1250" r="1" fill="white" opacity="0.04"/><circle cx="550" cy="1300" r="1" fill="white" opacity="0.04"/><circle cx="550" cy="1350" r="1" fill="white" opacity="0.04"/><circle cx="550" cy="1400" r="1" fill="white" opacity="0.04"/><circle cx="550" cy="1450" r="1" fill="white" opacity="0.04"/><circle cx="550" cy="1500" r="1" fill="white" opacity="0.04"/><circle cx="600" cy="0" r="1" fill="white" opacity="0.04"/><circle cx="600" cy="50" r="1" fill="white" opacity="0.04"/><circle cx="600" cy="100" r="1" fill="white" opacity="0.04"/><circle cx="600" cy="150" r="1" fill="white" opacity="0.04"/><circle cx="600" cy="200" r="1" fill="white" opacity="0.04"/><circle cx="600" cy="250" r="1" fill="white" opacity="0.04"/><circle cx="600" cy="300" r="1" fill="white" opacity="0.04"/><circle cx="600" cy="350" r="1" fill="white" opacity="0.04"/><circle cx="600" cy="400" r="1" fill="white" opacity="0.04"/><circle cx="600" cy="450" r="1" fill="white" opacity="0.04"/><circle cx="600" cy="500" r="1" fill="white" opacity="0.04"/><circle cx="600" cy="550" r="1" fill="white" opacity="0.04"/><circle cx="600" cy="600" r="1" fill="white" opacity="0.04"/><circle cx="600" cy="650" r="1" fill="white" opacity="0.04"/><circle cx="600" cy="700" r="1" fill="white" opacity="0.04"/><circle cx="600" cy="750" r="1" fill="white" opacity="0.04"/><circle cx="600" cy="800" r="1" fill="white" opacity="0.04"/><circle cx="600" cy="850" r="1" fill="white" opacity="0.04"/><circle cx="600" cy="900" r="1" fill="white" opacity="0.04"/><circle cx="600" cy="950" r="1" fill="white" opacity="0.04"/><circle cx="600" cy="1000" r="1" fill="white" opacity="0.04"/><circle cx="600" cy="1050" r="1" fill="white" opacity="0.04"/><circle cx="600" cy="1100" r="1" fill="white" opacity="0.04"/><circle cx="600" cy="1150" r="1" fill="white" opacity="0.04"/><circle cx="600" cy="1200" r="1" fill="white" opacity="0.04"/><circle cx="600" cy="1250" r="1" fill="white" opacity="0.04"/><circle cx="600" cy="1300" r="1" fill="white" opacity="0.04"/><circle cx="600" cy="1350" r="1" fill="white" opacity="0.04"/><circle cx="600" cy="1400" r="1" fill="white" opacity="0.04"/><circle cx="600" cy="1450" r="1" fill="white" opacity="0.04"/><circle cx="600" cy="1500" r="1" fill="white" opacity="0.04"/><circle cx="650" cy="0" r="1" fill="white" opacity="0.04"/><circle cx="650" cy="50" r="1" fill="white" opacity="0.04"/><circle cx="650" cy="100" r="1" fill="white" opacity="0.04"/><circle cx="650" cy="150" r="1" fill="white" opacity="0.04"/><circle cx="650" cy="200" r="1" fill="white" opacity="0.04"/><circle cx="650" cy="250" r="1" fill="white" opacity="0.04"/><circle cx="650" cy="300" r="1" fill="white" opacity="0.04"/><circle cx="650" cy="350" r="1" fill="white" opacity="0.04"/><circle cx="650" cy="400" r="1" fill="white" opacity="0.04"/><circle cx="650" cy="450" r="1" fill="white" opacity="0.04"/><circle cx="650" cy="500" r="1" fill="white" opacity="0.04"/><circle cx="650" cy="550" r="1" fill="white" opacity="0.04"/><circle cx="650" cy="600" r="1" fill="white" opacity="0.04"/><circle cx="650" cy="650" r="1" fill="white" opacity="0.04"/><circle cx="650" cy="700" r="1" fill="white" opacity="0.04"/><circle cx="650" cy="750" r="1" fill="white" opacity="0.04"/><circle cx="650" cy="800" r="1" fill="white" opacity="0.04"/><circle cx="650" cy="850" r="1" fill="white" opacity="0.04"/><circle cx="650" cy="900" r="1" fill="white" opacity="0.04"/><circle cx="650" cy="950" r="1" fill="white" opacity="0.04"/><circle cx="650" cy="1000" r="1" fill="white" opacity="0.04"/><circle cx="650" cy="1050" r="1" fill="white" opacity="0.04"/><circle cx="650" cy="1100" r="1" fill="white" opacity="0.04"/><circle cx="650" cy="1150" r="1" fill="white" opacity="0.04"/><circle cx="650" cy="1200" r="1" fill="white" opacity="0.04"/><circle cx="650" cy="1250" r="1" fill="white" opacity="0.04"/><circle cx="650" cy="1300" r="1" fill="white" opacity="0.04"/><circle cx="650" cy="1350" r="1" fill="white" opacity="0.04"/><circle cx="650" cy="1400" r="1" fill="white" opacity="0.04"/><circle cx="650" cy="1450" r="1" fill="white" opacity="0.04"/><circle cx="650" cy="1500" r="1" fill="white" opacity="0.04"/><circle cx="700" cy="0" r="1" fill="white" opacity="0.04"/><circle cx="700" cy="50" r="1" fill="white" opacity="0.04"/><circle cx="700" cy="100" r="1" fill="white" opacity="0.04"/><circle cx="700" cy="150" r="1" fill="white" opacity="0.04"/><circle cx="700" cy="200" r="1" fill="white" opacity="0.04"/><circle cx="700" cy="250" r="1" fill="white" opacity="0.04"/><circle cx="700" cy="300" r="1" fill="white" opacity="0.04"/><circle cx="700" cy="350" r="1" fill="white" opacity="0.04"/><circle cx="700" cy="400" r="1" fill="white" opacity="0.04"/><circle cx="700" cy="450" r="1" fill="white" opacity="0.04"/><circle cx="700" cy="500" r="1" fill="white" opacity="0.04"/><circle cx="700" cy="550" r="1" fill="white" opacity="0.04"/><circle cx="700" cy="600" r="1" fill="white" opacity="0.04"/><circle cx="700" cy="650" r="1" fill="white" opacity="0.04"/><circle cx="700" cy="700" r="1" fill="white" opacity="0.04"/><circle cx="700" cy="750" r="1" fill="white" opacity="0.04"/><circle cx="700" cy="800" r="1" fill="white" opacity="0.04"/><circle cx="700" cy="850" r="1" fill="white" opacity="0.04"/><circle cx="700" cy="900" r="1" fill="white" opacity="0.04"/><circle cx="700" cy="950" r="1" fill="white" opacity="0.04"/><circle cx="700" cy="1000" r="1" fill="white" opacity="0.04"/><circle cx="700" cy="1050" r="1" fill="white" opacity="0.04"/><circle cx="700" cy="1100" r="1" fill="white" opacity="0.04"/><circle cx="700" cy="1150" r="1" fill="white" opacity="0.04"/><circle cx="700" cy="1200" r="1" fill="white" opacity="0.04"/><circle cx="700" cy="1250" r="1" fill="white" opacity="0.04"/><circle cx="700" cy="1300" r="1" fill="white" opacity="0.04"/><circle cx="700" cy="1350" r="1" fill="white" opacity="0.04"/><circle cx="700" cy="1400" r="1" fill="white" opacity="0.04"/><circle cx="700" cy="1450" r="1" fill="white" opacity="0.04"/><circle cx="700" cy="1500" r="1" fill="white" opacity="0.04"/><circle cx="750" cy="0" r="1" fill="white" opacity="0.04"/><circle cx="750" cy="50" r="1" fill="white" opacity="0.04"/><circle cx="750" cy="100" r="1" fill="white" opacity="0.04"/><circle cx="750" cy="150" r="1" fill="white" opacity="0.04"/><circle cx="750" cy="200" r="1" fill="white" opacity="0.04"/><circle cx="750" cy="250" r="1" fill="white" opacity="0.04"/><circle cx="750" cy="300" r="1" fill="white" opacity="0.04"/><circle cx="750" cy="350" r="1" fill="white" opacity="0.04"/><circle cx="750" cy="400" r="1" fill="white" opacity="0.04"/><circle cx="750" cy="450" r="1" fill="white" opacity="0.04"/><circle cx="750" cy="500" r="1" fill="white" opacity="0.04"/><circle cx="750" cy="550" r="1" fill="white" opacity="0.04"/><circle cx="750" cy="600" r="1" fill="white" opacity="0.04"/><circle cx="750" cy="650" r="1" fill="white" opacity="0.04"/><circle cx="750" cy="700" r="1" fill="white" opacity="0.04"/><circle cx="750" cy="750" r="1" fill="white" opacity="0.04"/><circle cx="750" cy="800" r="1" fill="white" opacity="0.04"/><circle cx="750" cy="850" r="1" fill="white" opacity="0.04"/><circle cx="750" cy="900" r="1" fill="white" opacity="0.04"/><circle cx="750" cy="950" r="1" fill="white" opacity="0.04"/><circle cx="750" cy="1000" r="1" fill="white" opacity="0.04"/><circle cx="750" cy="1050" r="1" fill="white" opacity="0.04"/><circle cx="750" cy="1100" r="1" fill="white" opacity="0.04"/><circle cx="750" cy="1150" r="1" fill="white" opacity="0.04"/><circle cx="750" cy="1200" r="1" fill="white" opacity="0.04"/><circle cx="750" cy="1250" r="1" fill="white" opacity="0.04"/><circle cx="750" cy="1300" r="1" fill="white" opacity="0.04"/><circle cx="750" cy="1350" r="1" fill="white" opacity="0.04"/><circle cx="750" cy="1400" r="1" fill="white" opacity="0.04"/><circle cx="750" cy="1450" r="1" fill="white" opacity="0.04"/><circle cx="750" cy="1500" r="1" fill="white" opacity="0.04"/><circle cx="800" cy="0" r="1" fill="white" opacity="0.04"/><circle cx="800" cy="50" r="1" fill="white" opacity="0.04"/><circle cx="800" cy="100" r="1" fill="white" opacity="0.04"/><circle cx="800" cy="150" r="1" fill="white" opacity="0.04"/><circle cx="800" cy="200" r="1" fill="white" opacity="0.04"/><circle cx="800" cy="250" r="1" fill="white" opacity="0.04"/><circle cx="800" cy="300" r="1" fill="white" opacity="0.04"/><circle cx="800" cy="350" r="1" fill="white" opacity="0.04"/><circle cx="800" cy="400" r="1" fill="white" opacity="0.04"/><circle cx="800" cy="450" r="1" fill="white" opacity="0.04"/><circle cx="800" cy="500" r="1" fill="white" opacity="0.04"/><circle cx="800" cy="550" r="1" fill="white" opacity="0.04"/><circle cx="800" cy="600" r="1" fill="white" opacity="0.04"/><circle cx="800" cy="650" r="1" fill="white" opacity="0.04"/><circle cx="800" cy="700" r="1" fill="white" opacity="0.04"/><circle cx="800" cy="750" r="1" fill="white" opacity="0.04"/><circle cx="800" cy="800" r="1" fill="white" opacity="0.04"/><circle cx="800" cy="850" r="1" fill="white" opacity="0.04"/><circle cx="800" cy="900" r="1" fill="white" opacity="0.04"/><circle cx="800" cy="950" r="1" fill="white" opacity="0.04"/><circle cx="800" cy="1000" r="1" fill="white" opacity="0.04"/><circle cx="800" cy="1050" r="1" fill="white" opacity="0.04"/><circle cx="800" cy="1100" r="1" fill="white" opacity="0.04"/><circle cx="800" cy="1150" r="1" fill="white" opacity="0.04"/><circle cx="800" cy="1200" r="1" fill="white" opacity="0.04"/><circle cx="800" cy="1250" r="1" fill="white" opacity="0.04"/><circle cx="800" cy="1300" r="1" fill="white" opacity="0.04"/><circle cx="800" cy="1350" r="1" fill="white" opacity="0.04"/><circle cx="800" cy="1400" r="1" fill="white" opacity="0.04"/><circle cx="800" cy="1450" r="1" fill="white" opacity="0.04"/><circle cx="800" cy="1500" r="1" fill="white" opacity="0.04"/><circle cx="850" cy="0" r="1" fill="white" opacity="0.04"/><circle cx="850" cy="50" r="1" fill="white" opacity="0.04"/><circle cx="850" cy="100" r="1" fill="white" opacity="0.04"/><circle cx="850" cy="150" r="1" fill="white" opacity="0.04"/><circle cx="850" cy="200" r="1" fill="white" opacity="0.04"/><circle cx="850" cy="250" r="1" fill="white" opacity="0.04"/><circle cx="850" cy="300" r="1" fill="white" opacity="0.04"/><circle cx="850" cy="350" r="1" fill="white" opacity="0.04"/><circle cx="850" cy="400" r="1" fill="white" opacity="0.04"/><circle cx="850" cy="450" r="1" fill="white" opacity="0.04"/><circle cx="850" cy="500" r="1" fill="white" opacity="0.04"/><circle cx="850" cy="550" r="1" fill="white" opacity="0.04"/><circle cx="850" cy="600" r="1" fill="white" opacity="0.04"/><circle cx="850" cy="650" r="1" fill="white" opacity="0.04"/><circle cx="850" cy="700" r="1" fill="white" opacity="0.04"/><circle cx="850" cy="750" r="1" fill="white" opacity="0.04"/><circle cx="850" cy="800" r="1" fill="white" opacity="0.04"/><circle cx="850" cy="850" r="1" fill="white" opacity="0.04"/><circle cx="850" cy="900" r="1" fill="white" opacity="0.04"/><circle cx="850" cy="950" r="1" fill="white" opacity="0.04"/><circle cx="850" cy="1000" r="1" fill="white" opacity="0.04"/><circle cx="850" cy="1050" r="1" fill="white" opacity="0.04"/><circle cx="850" cy="1100" r="1" fill="white" opacity="0.04"/><circle cx="850" cy="1150" r="1" fill="white" opacity="0.04"/><circle cx="850" cy="1200" r="1" fill="white" opacity="0.04"/><circle cx="850" cy="1250" r="1" fill="white" opacity="0.04"/><circle cx="850" cy="1300" r="1" fill="white" opacity="0.04"/><circle cx="850" cy="1350" r="1" fill="white" opacity="0.04"/><circle cx="850" cy="1400" r="1" fill="white" opacity="0.04"/><circle cx="850" cy="1450" r="1" fill="white" opacity="0.04"/><circle cx="850" cy="1500" r="1" fill="white" opacity="0.04"/><circle cx="900" cy="0" r="1" fill="white" opacity="0.04"/><circle cx="900" cy="50" r="1" fill="white" opacity="0.04"/><circle cx="900" cy="100" r="1" fill="white" opacity="0.04"/><circle cx="900" cy="150" r="1" fill="white" opacity="0.04"/><circle cx="900" cy="200" r="1" fill="white" opacity="0.04"/><circle cx="900" cy="250" r="1" fill="white" opacity="0.04"/><circle cx="900" cy="300" r="1" fill="white" opacity="0.04"/><circle cx="900" cy="350" r="1" fill="white" opacity="0.04"/><circle cx="900" cy="400" r="1" fill="white" opacity="0.04"/><circle cx="900" cy="450" r="1" fill="white" opacity="0.04"/><circle cx="900" cy="500" r="1" fill="white" opacity="0.04"/><circle cx="900" cy="550" r="1" fill="white" opacity="0.04"/><circle cx="900" cy="600" r="1" fill="white" opacity="0.04"/><circle cx="900" cy="650" r="1" fill="white" opacity="0.04"/><circle cx="900" cy="700" r="1" fill="white" opacity="0.04"/><circle cx="900" cy="750" r="1" fill="white" opacity="0.04"/><circle cx="900" cy="800" r="1" fill="white" opacity="0.04"/><circle cx="900" cy="850" r="1" fill="white" opacity="0.04"/><circle cx="900" cy="900" r="1" fill="white" opacity="0.04"/><circle cx="900" cy="950" r="1" fill="white" opacity="0.04"/><circle cx="900" cy="1000" r="1" fill="white" opacity="0.04"/><circle cx="900" cy="1050" r="1" fill="white" opacity="0.04"/><circle cx="900" cy="1100" r="1" fill="white" opacity="0.04"/><circle cx="900" cy="1150" r="1" fill="white" opacity="0.04"/><circle cx="900" cy="1200" r="1" fill="white" opacity="0.04"/><circle cx="900" cy="1250" r="1" fill="white" opacity="0.04"/><circle cx="900" cy="1300" r="1" fill="white" opacity="0.04"/><circle cx="900" cy="1350" r="1" fill="white" opacity="0.04"/><circle cx="900" cy="1400" r="1" fill="white" opacity="0.04"/><circle cx="900" cy="1450" r="1" fill="white" opacity="0.04"/><circle cx="900" cy="1500" r="1" fill="white" opacity="0.04"/><circle cx="950" cy="0" r="1" fill="white" opacity="0.04"/><circle cx="950" cy="50" r="1" fill="white" opacity="0.04"/><circle cx="950" cy="100" r="1" fill="white" opacity="0.04"/><circle cx="950" cy="150" r="1" fill="white" opacity="0.04"/><circle cx="950" cy="200" r="1" fill="white" opacity="0.04"/><circle cx="950" cy="250" r="1" fill="white" opacity="0.04"/><circle cx="950" cy="300" r="1" fill="white" opacity="0.04"/><circle cx="950" cy="350" r="1" fill="white" opacity="0.04"/><circle cx="950" cy="400" r="1" fill="white" opacity="0.04"/><circle cx="950" cy="450" r="1" fill="white" opacity="0.04"/><circle cx="950" cy="500" r="1" fill="white" opacity="0.04"/><circle cx="950" cy="550" r="1" fill="white" opacity="0.04"/><circle cx="950" cy="600" r="1" fill="white" opacity="0.04"/><circle cx="950" cy="650" r="1" fill="white" opacity="0.04"/><circle cx="950" cy="700" r="1" fill="white" opacity="0.04"/><circle cx="950" cy="750" r="1" fill="white" opacity="0.04"/><circle cx="950" cy="800" r="1" fill="white" opacity="0.04"/><circle cx="950" cy="850" r="1" fill="white" opacity="0.04"/><circle cx="950" cy="900" r="1" fill="white" opacity="0.04"/><circle cx="950" cy="950" r="1" fill="white" opacity="0.04"/><circle cx="950" cy="1000" r="1" fill="white" opacity="0.04"/><circle cx="950" cy="1050" r="1" fill="white" opacity="0.04"/><circle cx="950" cy="1100" r="1" fill="white" opacity="0.04"/><circle cx="950" cy="1150" r="1" fill="white" opacity="0.04"/><circle cx="950" cy="1200" r="1" fill="white" opacity="0.04"/><circle cx="950" cy="1250" r="1" fill="white" opacity="0.04"/><circle cx="950" cy="1300" r="1" fill="white" opacity="0.04"/><circle cx="950" cy="1350" r="1" fill="white" opacity="0.04"/><circle cx="950" cy="1400" r="1" fill="white" opacity="0.04"/><circle cx="950" cy="1450" r="1" fill="white" opacity="0.04"/><circle cx="950" cy="1500" r="1" fill="white" opacity="0.04"/><circle cx="1000" cy="0" r="1" fill="white" opacity="0.04"/><circle cx="1000" cy="50" r="1" fill="white" opacity="0.04"/><circle cx="1000" cy="100" r="1" fill="white" opacity="0.04"/><circle cx="1000" cy="150" r="1" fill="white" opacity="0.04"/><circle cx="1000" cy="200" r="1" fill="white" opacity="0.04"/><circle cx="1000" cy="250" r="1" fill="white" opacity="0.04"/><circle cx="1000" cy="300" r="1" fill="white" opacity="0.04"/><circle cx="1000" cy="350" r="1" fill="white" opacity="0.04"/><circle cx="1000" cy="400" r="1" fill="white" opacity="0.04"/><circle cx="1000" cy="450" r="1" fill="white" opacity="0.04"/><circle cx="1000" cy="500" r="1" fill="white" opacity="0.04"/><circle cx="1000" cy="550" r="1" fill="white" opacity="0.04"/><circle cx="1000" cy="600" r="1" fill="white" opacity="0.04"/><circle cx="1000" cy="650" r="1" fill="white" opacity="0.04"/><circle cx="1000" cy="700" r="1" fill="white" opacity="0.04"/><circle cx="1000" cy="750" r="1" fill="white" opacity="0.04"/><circle cx="1000" cy="800" r="1" fill="white" opacity="0.04"/><circle cx="1000" cy="850" r="1" fill="white" opacity="0.04"/><circle cx="1000" cy="900" r="1" fill="white" opacity="0.04"/><circle cx="1000" cy="950" r="1" fill="white" opacity="0.04"/><circle cx="1000" cy="1000" r="1" fill="white" opacity="0.04"/><circle cx="1000" cy="1050" r="1" fill="white" opacity="0.04"/><circle cx="1000" cy="1100" r="1" fill="white" opacity="0.04"/><circle cx="1000" cy="1150" r="1" fill="white" opacity="0.04"/><circle cx="1000" cy="1200" r="1" fill="white" opacity="0.04"/><circle cx="1000" cy="1250" r="1" fill="white" opacity="0.04"/><circle cx="1000" cy="1300" r="1" fill="white" opacity="0.04"/><circle cx="1000" cy="1350" r="1" fill="white" opacity="0.04"/><circle cx="1000" cy="1400" r="1" fill="white" opacity="0.04"/><circle cx="1000" cy="1450" r="1" fill="white" opacity="0.04"/><circle cx="1000" cy="1500" r="1" fill="white" opacity="0.04"/>

  <!-- Top gold bar -->
  <rect x="0" y="0" width="1000" height="8" fill="#d4af37"/>

  <!-- Header band -->
  <rect x="0" y="8" width="1000" height="110" fill="#152240"/>
  <text x="500" y="46" font-family="Georgia, serif" font-size="22" font-weight="400"
        fill="white" text-anchor="middle" letter-spacing="8" opacity="0.7">FATHER&#39;S DAY GIFT GUIDE</text>
  <rect x="150" y="60" width="700" height="1.5" fill="#d4af37" opacity="0.4"/>
  <text x="500" y="100" font-family="Georgia, serif" font-size="22" font-weight="400"
        fill="white" text-anchor="middle" letter-spacing="4" opacity="0.45">EXPERTLY CURATED BY JWATCHGUIDE</text>

  <!-- Price badge — dark text on gold -->
  <rect x="150" y="130" width="700" height="110" rx="8" fill="#d4af37"/>
  <text x="500" y="208" font-family="Georgia, serif" font-size="62" font-weight="700"
        fill="#0a1628" text-anchor="middle" letter-spacing="3">Under $150</text>

  <!-- Watch icon -->
  <circle cx="500" cy="430" r="140" fill="none" stroke="#d4af37" stroke-width="5" opacity="0.25"/>
  <circle cx="500" cy="430" r="120" fill="none" stroke="#d4af37" stroke-width="2" opacity="0.15"/>
  <rect x="478" y="280" width="44" height="22" rx="6" fill="none" stroke="#d4af37" stroke-width="3" opacity="0.5"/>
  <rect x="478" y="558" width="44" height="22" rx="6" fill="none" stroke="#d4af37" stroke-width="3" opacity="0.5"/>
  <line x1="500" y1="430" x2="500" y2="330" stroke="#d4af37" stroke-width="5" stroke-linecap="round" opacity="0.9"/>
  <line x1="500" y1="430" x2="590" y2="430" stroke="#d4af37" stroke-width="3.5" stroke-linecap="round" opacity="0.9"/>
  <circle cx="500" cy="430" r="8" fill="#d4af37" opacity="0.9"/>
  <line x1="500" y1="302" x2="500" y2="320" stroke="#d4af37" stroke-width="4" opacity="0.7"/>
  <line x1="500" y1="540" x2="500" y2="558" stroke="#d4af37" stroke-width="4" opacity="0.7"/>
  <line x1="362" y1="430" x2="380" y2="430" stroke="#d4af37" stroke-width="4" opacity="0.7"/>
  <line x1="620" y1="430" x2="638" y2="430" stroke="#d4af37" stroke-width="4" opacity="0.7"/>

  <!-- Headline -->
  <text x="500" y="648" font-family="Georgia, serif" font-size="76" font-weight="700"
        fill="white" text-anchor="middle">Best Watch Gifts</text>
  <text x="500" y="738" font-family="Georgia, serif" font-size="76" font-weight="700"
        fill="#d4af37" text-anchor="middle">for Dad</text>

  <!-- Tagline -->
  <rect x="200" y="772" width="600" height="1.5" fill="url(#gline)"/>
  <text x="500" y="826" font-family="Georgia, serif" font-size="32" font-weight="400"
        fill="white" text-anchor="middle" opacity="0.65" letter-spacing="1">The sweet spot for value.</text>
  <rect x="200" y="854" width="600" height="1.5" fill="url(#gline)"/>

  
  <!-- Column header -->
  <rect x="80" y="895" width="840" height="44" rx="6" fill="#d4af37" opacity="0.25"/>
  <text x="110" y="926" font-family="Georgia, serif" font-size="22" font-weight="700"
        fill="white" letter-spacing="5" opacity="0.9">TOP PICKS</text>
  <text x="890" y="926" font-family="Georgia, serif" font-size="22" font-weight="700"
        fill="white" letter-spacing="5" text-anchor="end" opacity="0.9">PRICE</text>

  <rect x="80" y="939" width="840" height="86" rx="6" fill="#d4af37" opacity="0.13"/>
  <text x="110" y="994" font-family="Georgia, serif" font-size="32" fill="white" opacity="0.92">Seiko SNXS79</text>
  <text x="890" y="994" font-family="Georgia, serif" font-size="32" font-weight="700" fill="#d4af37" text-anchor="end">$115</text>

  <rect x="80" y="1029" width="840" height="86" rx="6" fill="#d4af37" opacity="0.06"/>
  <text x="110" y="1084" font-family="Georgia, serif" font-size="32" fill="white" opacity="0.92">Orient Bambino</text>
  <text x="890" y="1084" font-family="Georgia, serif" font-size="32" font-weight="700" fill="#d4af37" text-anchor="end">$120</text>

  <rect x="80" y="1119" width="840" height="86" rx="6" fill="#d4af37" opacity="0.13"/>
  <text x="110" y="1174" font-family="Georgia, serif" font-size="32" fill="white" opacity="0.92">Bulova Sutton</text>
  <text x="890" y="1174" font-family="Georgia, serif" font-size="32" font-weight="700" fill="#d4af37" text-anchor="end">$135</text>

  <rect x="80" y="1209" width="840" height="86" rx="6" fill="#d4af37" opacity="0.06"/>
  <text x="110" y="1264" font-family="Georgia, serif" font-size="32" fill="white" opacity="0.92">Citizen Eco-Drive</text>
  <text x="890" y="1264" font-family="Georgia, serif" font-size="32" font-weight="700" fill="#d4af37" text-anchor="end">$150</text>

  <!-- CTA Button -->
  <rect x="200" y="1340" width="600" height="78" rx="39" fill="#d4af37"/>
  <text x="500" y="1388" font-family="Georgia, serif" font-size="30" font-weight="700"
        fill="#0a1628" text-anchor="middle" letter-spacing="2">See All Picks →</text>

  <!-- Footer -->
  <rect x="0" y="1438" width="1000" height="62" fill="#152240"/>
  <rect x="0" y="1438" width="1000" height="2" fill="#d4af37" opacity="0.6"/>
  <text x="500" y="1477" font-family="Georgia, serif" font-size="26" font-weight="400"
        fill="#d4af37" text-anchor="middle" letter-spacing="3" opacity="0.9">JWatchGuide.com</text>

  <!-- Bottom gold bar -->
  <rect x="0" y="1492" width="1000" height="8" fill="#d4af37"/>
</svg>